<svg width="500" height="403" viewBox="0 0 500 403" fill="none" xmlns="http://www.w3.org/2000/svg">
<path d="M500 349.4H0V349.65H500V349.4Z" fill="#EBEBEB"/>
<path d="M449.9 365.49H416.78V365.74H449.9V365.49Z" fill="#EBEBEB"/>
<path d="M331.22 368.21H322.53V368.46H331.22V368.21Z" fill="#EBEBEB"/>
<path d="M415.78 356.21H396.59V356.46H415.78V356.21Z" fill="#EBEBEB"/>
<path d="M95.65 357.89H52.46V358.14H95.65V357.89Z" fill="#EBEBEB"/>
<path d="M110.89 357.89H104.56V358.14H110.89V357.89Z" fill="#EBEBEB"/>
<path d="M225.15 362.11H131.47V362.36H225.15V362.11Z" fill="#EBEBEB"/>
<path d="M237 304.8H43.91C42.3973 304.797 40.9475 304.195 39.8789 303.124C38.8102 302.054 38.21 300.603 38.21 299.09V27.66C38.2232 26.156 38.8292 24.718 39.8964 23.6582C40.9637 22.5985 42.406 22.0026 43.91 22H237C238.514 22 239.967 22.6016 241.038 23.6724C242.108 24.7433 242.71 26.1956 242.71 27.71V299.09C242.71 300.604 242.108 302.057 241.038 303.128C239.967 304.198 238.514 304.8 237 304.8ZM43.91 22.2C42.4636 22.2026 41.0774 22.7791 40.0557 23.8027C39.0339 24.8264 38.46 26.2136 38.46 27.66V299.09C38.46 300.536 39.0339 301.924 40.0557 302.947C41.0774 303.971 42.4636 304.547 43.91 304.55H237C238.447 304.547 239.835 303.971 240.858 302.948C241.881 301.924 242.457 300.537 242.46 299.09V27.66C242.457 26.2127 241.881 24.8255 240.858 23.8021C239.835 22.7787 238.447 22.2026 237 22.2H43.91Z" fill="#EBEBEB"/>
<path d="M453.31 304.8H260.21C258.696 304.797 257.246 304.195 256.175 303.125C255.105 302.054 254.503 300.604 254.5 299.09V27.66C254.516 26.1551 255.124 24.7171 256.193 23.6576C257.262 22.5981 258.705 22.0025 260.21 22H453.31C454.812 22.0052 456.252 22.6022 457.317 23.6617C458.382 24.7212 458.987 26.1578 459 27.66V299.09C459 300.601 458.401 302.05 457.335 303.121C456.268 304.191 454.821 304.795 453.31 304.8ZM260.21 22.2C258.763 22.2026 257.375 22.7787 256.352 23.8021C255.329 24.8255 254.753 26.2127 254.75 27.66V299.09C254.753 300.537 255.329 301.924 256.352 302.948C257.375 303.971 258.763 304.547 260.21 304.55H453.31C454.757 304.547 456.145 303.971 457.168 302.948C458.191 301.924 458.767 300.537 458.77 299.09V27.66C458.767 26.2127 458.191 24.8255 457.168 23.8021C456.145 22.7787 454.757 22.2026 453.31 22.2H260.21Z" fill="#EBEBEB"/>
<path d="M85.4 204.77H91.03V86.27H85.4V204.77Z" fill="#E0E0E0"/>
<path d="M195.79 86.28H88.65V204.78H195.79V86.28Z" fill="#E0E0E0"/>
<path d="M199.21 86.28H88.08V204.78H199.21V86.28Z" fill="#F0F0F0"/>
<path d="M194.51 90.0601H92.61V199.33H194.51V90.0601Z" fill="white"/>
<path d="M194.51 90.0601H191.56V199.33H194.51V90.0601Z" fill="#E0E0E0"/>
<path d="M92.34 168.63V171.58H191.87V168.63H92.34Z" fill="#E0E0E0"/>
<path d="M194.51 163.69H91.03V168.64H194.51V163.69Z" fill="#F0F0F0"/>
<path d="M273.71 347.55H421.12V160.88H273.71V347.55Z" fill="#F0F0F0"/>
<path d="M278.92 207.59H415.91V167.67H278.92V207.59Z" fill="#E0E0E0"/>
<path d="M408.12 207.59H415.9V174.14H408.12V207.59Z" fill="#EBEBEB"/>
<path d="M370.49 207.59H378.27V174.14H370.49V207.59Z" fill="#EBEBEB"/>
<path d="M322.099 206.267L329.766 207.588L335.448 174.624L327.781 173.303L322.099 206.267Z" fill="#EBEBEB"/>
<path d="M398.49 207.59H406.27V178.54H398.49V207.59Z" fill="#EBEBEB"/>
<path d="M380.59 207.59H388.37V178.54H380.59V207.59Z" fill="#EBEBEB"/>
<path d="M335.44 207.59H343.22V178.54H335.44V207.59Z" fill="#EBEBEB"/>
<path d="M353.986 205.901L361.581 207.589L367.883 179.231L360.289 177.543L353.986 205.901Z" fill="#EBEBEB"/>
<path d="M391.76 207.59H395.65V172.47H391.76V207.59Z" fill="#EBEBEB"/>
<path d="M345.47 207.59H349.36V172.47H345.47V207.59Z" fill="#EBEBEB"/>
<path d="M415.9 213.92H278.91V253.84H415.9V213.92Z" fill="#E0E0E0"/>
<path d="M286.69 220.38H278.91V253.83H286.69V220.38Z" fill="#EBEBEB"/>
<path d="M324.32 220.38H316.54V253.83H324.32V220.38Z" fill="#EBEBEB"/>
<path d="M367.043 219.534L359.376 220.855L365.058 253.819L372.725 252.498L367.043 219.534Z" fill="#EBEBEB"/>
<path d="M296.34 224.79H288.56V253.84H296.34V224.79Z" fill="#EBEBEB"/>
<path d="M314.22 224.79H306.44V253.84H314.22V224.79Z" fill="#EBEBEB"/>
<path d="M359.37 224.79H351.59V253.84H359.37V224.79Z" fill="#EBEBEB"/>
<path d="M334.554 223.778L326.959 225.466L333.262 253.824L340.856 252.136L334.554 223.778Z" fill="#EBEBEB"/>
<path d="M303.07 218.72H299.18V253.84H303.07V218.72Z" fill="#EBEBEB"/>
<path d="M349.35 218.72H345.46V253.84H349.35V218.72Z" fill="#EBEBEB"/>
<path d="M408.12 253.83H415.9V220.38H408.12V253.83Z" fill="#EBEBEB"/>
<path d="M398.49 253.83H406.27V224.78H398.49V253.83Z" fill="#EBEBEB"/>
<path d="M380.59 253.83H388.37V224.78H380.59V253.83Z" fill="#EBEBEB"/>
<path d="M391.76 253.83H395.65V218.71H391.76V253.83Z" fill="#EBEBEB"/>
<path d="M278.92 300.07H415.91V260.15H278.92V300.07Z" fill="#E0E0E0"/>
<path d="M329.49 300.07H337.27V266.62H329.49V300.07Z" fill="#EBEBEB"/>
<path d="M281.102 298.735L288.769 300.057L294.451 267.093L286.784 265.771L281.102 298.735Z" fill="#EBEBEB"/>
<path d="M357.49 300.07H365.27V271.02H357.49V300.07Z" fill="#EBEBEB"/>
<path d="M339.6 300.07H347.38V271.02H339.6V300.07Z" fill="#EBEBEB"/>
<path d="M294.44 300.07H302.22V271.02H294.44V300.07Z" fill="#EBEBEB"/>
<path d="M312.993 298.368L320.588 300.056L326.891 271.698L319.296 270.01L312.993 298.368Z" fill="#EBEBEB"/>
<path d="M350.76 300.07H354.65V264.95H350.76V300.07Z" fill="#EBEBEB"/>
<path d="M304.47 300.07H308.36V264.95H304.47V300.07Z" fill="#EBEBEB"/>
<path d="M370.634 298.737L378.3 300.059L383.982 267.095L376.316 265.773L370.634 298.737Z" fill="#EBEBEB"/>
<path d="M383.98 300.07H391.76V271.02H383.98V300.07Z" fill="#EBEBEB"/>
<path d="M402.526 298.365L410.12 300.053L416.423 271.695L408.828 270.007L402.526 298.365Z" fill="#EBEBEB"/>
<path d="M393.99 300.07H397.88V264.95H393.99V300.07Z" fill="#EBEBEB"/>
<path d="M176.4 232.78H90.84C88.6308 232.776 86.4425 233.208 84.4002 234.05C82.3579 234.892 80.5017 236.129 78.9377 237.689C77.3737 239.25 76.1326 241.103 75.2853 243.143C74.4381 245.184 74.0013 247.371 74 249.58V316.4H193.21V249.58C193.21 247.373 192.775 245.188 191.93 243.149C191.085 241.11 189.847 239.257 188.286 237.697C186.725 236.137 184.872 234.9 182.832 234.056C180.793 233.212 178.607 232.779 176.4 232.78Z" fill="#E6E6E6"/>
<path d="M218.51 282.3H203.2C200.548 282.3 198.004 283.354 196.129 285.229C194.254 287.104 193.2 289.648 193.2 292.3V347.55H228.48V292.29C228.477 289.645 227.427 287.108 225.558 285.236C223.69 283.364 221.155 282.308 218.51 282.3Z" fill="#E0E0E0"/>
<path d="M218.51 282.3H218.18C215.528 282.3 212.984 283.354 211.109 285.229C209.234 287.104 208.18 289.648 208.18 292.3V347.55H228.47V292.29C228.467 289.646 227.418 287.112 225.552 285.24C223.685 283.367 221.153 282.311 218.51 282.3Z" fill="#EBEBEB"/>
<path d="M203.93 322.16H86.5V347.54H203.93V322.16Z" fill="#E6E6E6"/>
<path d="M204.09 298.95H90.84C85.2343 298.95 80.69 303.494 80.69 309.1V315.43C80.69 321.036 85.2343 325.58 90.84 325.58H204.09C209.696 325.58 214.24 321.036 214.24 315.43V309.1C214.24 303.494 209.696 298.95 204.09 298.95Z" fill="#F5F5F5"/>
<path d="M105.08 298.95H91.03C85.4243 298.95 80.88 303.494 80.88 309.1V315.43C80.88 321.036 85.4243 325.58 91.03 325.58H105.08C110.686 325.58 115.23 321.036 115.23 315.43V309.1C115.23 303.494 110.686 298.95 105.08 298.95Z" fill="#E0E0E0"/>
<path d="M89.51 282.3H74.2C71.5478 282.3 69.0043 283.354 67.1289 285.229C65.2536 287.104 64.2 289.648 64.2 292.3V347.55H99.5V292.29C99.4974 289.641 98.444 287.102 96.5711 285.229C94.6982 283.356 92.1587 282.303 89.51 282.3Z" fill="#E0E0E0"/>
<path d="M89.51 282.3H89.19C86.5378 282.3 83.9943 283.354 82.1189 285.229C80.2436 287.104 79.19 289.648 79.19 292.3V347.55H99.5V292.29C99.4974 289.641 98.444 287.102 96.5711 285.229C94.6982 283.356 92.1587 282.303 89.51 282.3Z" fill="#F0F0F0"/>
<path d="M343.68 116.53C354.925 116.53 364.04 107.415 364.04 96.1701C364.04 84.9256 354.925 75.8101 343.68 75.8101C332.435 75.8101 323.32 84.9256 323.32 96.1701C323.32 107.415 332.435 116.53 343.68 116.53Z" fill="#E0E0E0"/>
<path d="M360.784 98.9501C362.316 89.5135 355.908 80.622 346.471 79.0902C337.035 77.5584 328.143 83.9664 326.611 93.403C325.079 102.84 331.487 111.731 340.924 113.263C350.361 114.795 359.252 108.387 360.784 98.9501Z" fill="#F0F0F0"/>
<path d="M342.87 84.29V96.39L334.85 91.85" fill="#F0F0F0"/>
<path d="M342.87 97.26C342.718 97.2605 342.569 97.219 342.44 97.14L334.44 92.61C334.252 92.4899 334.117 92.3021 334.064 92.0856C334.011 91.8691 334.042 91.6402 334.153 91.4464C334.263 91.2526 334.444 91.1086 334.657 91.0441C334.871 90.9797 335.101 90.9997 335.3 91.1L342.02 94.91V84.29C342.043 84.0766 342.144 83.8793 342.304 83.7359C342.463 83.5925 342.67 83.5131 342.885 83.5131C343.1 83.5131 343.307 83.5925 343.466 83.7359C343.626 83.8793 343.727 84.0766 343.75 84.29V96.39C343.751 96.5418 343.712 96.6912 343.636 96.823C343.561 96.9547 343.452 97.0641 343.32 97.14C343.185 97.2227 343.028 97.2643 342.87 97.26Z" fill="#E0E0E0"/>
<path d="M250 394.57C357.082 394.57 443.89 388.405 443.89 380.8C443.89 373.195 357.082 367.03 250 367.03C142.918 367.03 56.11 373.195 56.11 380.8C56.11 388.405 142.918 394.57 250 394.57Z" fill="#F5F5F5"/>
<path d="M388.66 172.82H361.66C359.201 172.82 356.844 173.797 355.105 175.535C353.367 177.274 352.39 179.631 352.39 182.09V193.27C352.39 195.729 353.367 198.086 355.105 199.825C356.844 201.563 359.201 202.54 361.66 202.54H373.2L376.3 212.33L379.43 202.54H388.61C391.069 202.54 393.426 201.563 395.165 199.825C396.903 198.086 397.88 195.729 397.88 193.27V182.09C397.88 179.64 396.91 177.29 395.183 175.553C393.455 173.816 391.11 172.833 388.66 172.82Z" fill="#C53F3F"/>
<path d="M364.68 187C364.68 187.37 364.57 187.731 364.365 188.039C364.159 188.346 363.867 188.586 363.526 188.728C363.184 188.869 362.808 188.906 362.445 188.834C362.082 188.762 361.749 188.584 361.488 188.322C361.226 188.061 361.048 187.728 360.976 187.365C360.904 187.002 360.941 186.626 361.082 186.284C361.224 185.943 361.464 185.651 361.771 185.445C362.079 185.24 362.44 185.13 362.81 185.13C363.056 185.13 363.299 185.178 363.526 185.272C363.752 185.366 363.959 185.504 364.132 185.678C364.306 185.851 364.444 186.057 364.538 186.284C364.632 186.511 364.68 186.754 364.68 187ZM371.06 185.13C370.69 185.13 370.329 185.24 370.021 185.445C369.714 185.651 369.474 185.943 369.332 186.284C369.191 186.626 369.154 187.002 369.226 187.365C369.298 187.728 369.476 188.061 369.738 188.322C369.999 188.584 370.332 188.762 370.695 188.834C371.058 188.906 371.434 188.869 371.776 188.728C372.117 188.586 372.409 188.346 372.615 188.039C372.82 187.731 372.93 187.37 372.93 187C372.92 186.511 372.718 186.046 372.368 185.703C372.019 185.361 371.549 185.17 371.06 185.17V185.13ZM379.31 185.13C378.94 185.13 378.579 185.24 378.271 185.445C377.964 185.651 377.724 185.943 377.582 186.284C377.441 186.626 377.404 187.002 377.476 187.365C377.548 187.728 377.726 188.061 377.988 188.322C378.249 188.584 378.582 188.762 378.945 188.834C379.308 188.906 379.684 188.869 380.026 188.728C380.367 188.586 380.659 188.346 380.865 188.039C381.07 187.731 381.18 187.37 381.18 187C381.17 186.511 380.968 186.046 380.618 185.703C380.269 185.361 379.799 185.17 379.31 185.17V185.13ZM387.56 185.13C387.19 185.13 386.829 185.24 386.521 185.445C386.214 185.651 385.974 185.943 385.832 186.284C385.691 186.626 385.654 187.002 385.726 187.365C385.798 187.728 385.976 188.061 386.238 188.322C386.499 188.584 386.832 188.762 387.195 188.834C387.558 188.906 387.934 188.869 388.276 188.728C388.617 188.586 388.909 188.346 389.115 188.039C389.32 187.731 389.43 187.37 389.43 187C389.42 186.511 389.218 186.046 388.868 185.703C388.519 185.361 388.049 185.17 387.56 185.17V185.13Z" fill="white"/>
<path d="M111.5 205.82H84.55C83.3326 205.82 82.1272 206.06 81.0025 206.526C79.8778 206.991 78.8559 207.674 77.9951 208.535C77.1343 209.396 76.4515 210.418 75.9856 211.543C75.5198 212.667 75.28 213.873 75.28 215.09V226.27C75.28 228.729 76.2567 231.086 77.9951 232.825C79.7336 234.563 82.0914 235.54 84.55 235.54H96.09L99.19 245.32L102.32 235.54H111.5C113.959 235.54 116.316 234.563 118.055 232.825C119.793 231.086 120.77 228.729 120.77 226.27V215.09C120.77 213.873 120.53 212.667 120.064 211.543C119.599 210.418 118.916 209.396 118.055 208.535C117.194 207.674 116.172 206.991 115.047 206.526C113.923 206.06 112.717 205.82 111.5 205.82Z" fill="#C53F3F"/>
<path d="M87.52 220C87.52 220.37 87.4103 220.731 87.2048 221.039C86.9994 221.346 86.7073 221.586 86.3656 221.728C86.0239 221.869 85.6479 221.906 85.2852 221.834C84.9224 221.762 84.5892 221.584 84.3277 221.322C84.0662 221.061 83.8881 220.728 83.8159 220.365C83.7438 220.002 83.7808 219.626 83.9223 219.284C84.0639 218.943 84.3036 218.651 84.6111 218.445C84.9186 218.24 85.2801 218.13 85.65 218.13C86.146 218.13 86.6216 218.327 86.9723 218.678C87.323 219.028 87.52 219.504 87.52 220ZM93.9 218.13C93.5301 218.13 93.1686 218.24 92.8611 218.445C92.5536 218.651 92.3139 218.943 92.1723 219.284C92.0308 219.626 91.9938 220.002 92.0659 220.365C92.1381 220.728 92.3162 221.061 92.5777 221.322C92.8392 221.584 93.1724 221.762 93.5352 221.834C93.8979 221.906 94.2739 221.869 94.6156 221.728C94.9573 221.586 95.2494 221.346 95.4548 221.039C95.6603 220.731 95.77 220.37 95.77 220C95.7621 219.51 95.5613 219.043 95.2112 218.701C94.861 218.358 94.3899 218.167 93.9 218.17V218.13ZM102.15 218.13C101.779 218.126 101.416 218.232 101.106 218.435C100.796 218.638 100.553 218.929 100.408 219.27C100.264 219.612 100.224 219.988 100.294 220.352C100.363 220.716 100.54 221.052 100.801 221.315C101.061 221.579 101.394 221.759 101.758 221.832C102.121 221.906 102.498 221.87 102.841 221.729C103.184 221.589 103.477 221.349 103.683 221.041C103.89 220.733 104 220.371 104 220C103.992 219.514 103.794 219.05 103.448 218.708C103.102 218.366 102.636 218.173 102.15 218.17V218.13ZM110.4 218.13C110.03 218.13 109.669 218.24 109.361 218.445C109.054 218.651 108.814 218.943 108.672 219.284C108.531 219.626 108.494 220.002 108.566 220.365C108.638 220.728 108.816 221.061 109.078 221.322C109.339 221.584 109.672 221.762 110.035 221.834C110.398 221.906 110.774 221.869 111.116 221.728C111.457 221.586 111.749 221.346 111.955 221.039C112.16 220.731 112.27 220.37 112.27 220C112.262 219.51 112.061 219.043 111.711 218.701C111.361 218.358 110.89 218.167 110.4 218.17V218.13Z" fill="white"/>
<path d="M413 382.2H286.08C262.37 382.2 260.85 354.28 280.34 341.14C283.903 338.771 287.847 337.032 292 336C330.59 325.85 384.81 257.62 423 286.17L423.11 286.25C461.15 315 434.56 382.2 413 382.2Z" fill="#263238"/>
<path opacity="0.5" d="M413 382.2H286.08C262.37 382.2 260.85 354.28 280.34 341.14C283.903 338.771 287.847 337.032 292 336C330.59 325.85 384.81 257.62 423 286.17L423.11 286.25C461.15 315 434.56 382.2 413 382.2Z" fill="white"/>
<path opacity="0.2" d="M422.9 286.12C419.7 285.91 415.82 286.81 411.64 290.31C400.79 299.41 417.29 343.22 391.34 361.44C376.86 371.61 314.39 376.09 293.54 363.62C278.15 354.41 277.95 348.62 280.34 341.14C283.903 338.771 287.847 337.032 292 336C330.54 325.8 384.76 257.57 422.9 286.12Z" fill="black"/>
<path d="M324.22 277.86L316.65 272.53L322.31 266.74C322.31 266.74 328.12 269.74 327.57 275.09L324.22 277.86Z" fill="#E4897B"/>
<path d="M313.68 266.65L318.93 263.35L322.31 266.74L316.65 272.53L313.68 266.65Z" fill="#E4897B"/>
<path d="M361.46 264.09C354.29 266.2 350.76 278.81 344.84 290.72L327.61 273.6L322.13 278.46C322.13 278.46 337.91 303.53 345.36 303.53C354.66 303.53 364.31 277.7 364.31 277.7L361.46 264.09Z" fill="#263238"/>
<path opacity="0.1" d="M364.31 277.7C364.31 277.7 362.78 281.79 360.31 286.7C357.96 291.48 354.76 297.05 351.31 300.42C349.36 302.31 347.31 303.51 345.31 303.51C337.86 303.51 322.08 278.44 322.08 278.44L327.56 273.58L344.79 290.7C350.71 278.79 354.23 266.18 361.42 264.07L364.31 277.7Z" fill="white"/>
<path opacity="0.2" d="M360.35 286.72C358 291.5 354.8 297.07 351.35 300.44C351.72 289.01 357.35 277.86 357.35 277.86C358.902 280.597 359.92 283.603 360.35 286.72Z" fill="black"/>
<path d="M354.6 333.75C354.6 333.75 293.75 325.01 290.53 338.36C287.14 352.48 336 362 365.2 363C394.4 364 402.78 357 398.09 321H358.09L354.6 333.75Z" fill="#C53F3F"/>
<path opacity="0.6" d="M354.6 333.75C354.6 333.75 293.75 325.01 290.53 338.36C287.14 352.48 336 362 365.2 363C394.4 364 402.78 357 398.09 321H358.09L354.6 333.75Z" fill="white"/>
<path d="M320.71 361.59L307.96 361.6L301.84 361.61L301.11 355.16L306.77 354.4L320.6 352.56L320.71 361.59Z" fill="#E4897B"/>
<path d="M302.49 354.35L304.04 361.71C304.062 361.807 304.064 361.907 304.045 362.004C304.027 362.102 303.989 362.194 303.934 362.277C303.879 362.359 303.808 362.429 303.724 362.483C303.641 362.537 303.548 362.573 303.45 362.59L299.78 363.25C299.78 363.25 294.91 364.49 293.54 363.62C289.54 361.06 285.7 344.88 287.33 343.68C287.92 343.24 288.95 343.91 289.47 344.44C291.11 346.11 294.6 350.78 295.99 352.16C297.6 353.78 300.47 353.83 301.73 353.76C301.906 353.752 302.08 353.806 302.219 353.915C302.358 354.023 302.454 354.177 302.49 354.35Z" fill="#263238"/>
<path opacity="0.2" d="M320.71 361.59L307.96 361.6L306.77 354.4L320.6 352.56L320.71 361.59Z" fill="black"/>
<path d="M339.35 350.21L351.45 354.24L357.26 356.17L355.91 362.51L350.3 361.44L336.6 358.82L339.35 350.21Z" fill="#E4897B"/>
<path d="M354.35 362.84L355.2 355.37C355.212 355.272 355.244 355.178 355.293 355.092C355.342 355.006 355.407 354.931 355.485 354.871C355.563 354.81 355.652 354.766 355.748 354.74C355.843 354.714 355.942 354.707 356.04 354.72L359.73 355.26C359.73 355.26 364.73 355.62 365.73 356.88C368.73 360.57 367.25 377.14 365.33 377.76C364.62 377.99 363.86 377.03 363.53 376.37C362.53 374.26 360.67 368.72 359.79 366.98C358.79 364.93 356.06 363.98 354.85 363.64C354.685 363.587 354.545 363.478 354.453 363.332C354.362 363.185 354.325 363.011 354.35 362.84Z" fill="#263238"/>
<path opacity="0.2" d="M339.35 350.21L351.45 354.24L350.3 361.44L336.6 358.82L339.35 350.21Z" fill="black"/>
<path d="M348.2 362.56L344.75 362.89L346.81 350.95L350.77 353.04L348.2 362.56Z" fill="#C53F3F"/>
<path opacity="0.6" d="M348.2 362.56L344.75 362.89L346.81 350.95L350.77 353.04L348.2 362.56Z" fill="white"/>
<path d="M359.75 366.89C359.84 367.431 359.759 367.987 359.52 368.48C359.423 368.628 359.289 368.747 359.131 368.826C358.973 368.905 358.796 368.941 358.62 368.93C358.513 368.935 358.407 368.911 358.313 368.862C358.218 368.813 358.138 368.74 358.08 368.65C357.56 367.77 358.78 365.06 358.93 364.76C358.939 364.726 358.961 364.697 358.991 364.679C359.02 364.66 359.056 364.654 359.09 364.66C359.128 364.663 359.164 364.679 359.193 364.704C359.222 364.729 359.242 364.763 359.25 364.8C359.487 365.478 359.654 366.178 359.75 366.89ZM358.31 368.19C358.317 368.278 358.344 368.364 358.39 368.44C358.409 368.478 358.439 368.51 358.477 368.529C358.515 368.549 358.558 368.556 358.6 368.55C358.721 368.564 358.844 368.544 358.954 368.491C359.064 368.437 359.156 368.354 359.22 368.25C359.511 367.299 359.458 366.276 359.07 365.36C358.649 366.25 358.391 367.209 358.31 368.19Z" fill="#C53F3F"/>
<path d="M359.28 364.82V364.9C358.95 365.77 357.45 367.49 356.6 367.37C356.461 367.346 356.334 367.275 356.24 367.17C356.145 367.065 356.089 366.931 356.08 366.79C356.042 366.65 356.034 366.503 356.058 366.36C356.083 366.216 356.138 366.08 356.22 365.96C356.84 364.96 358.99 364.64 359.11 364.65C359.143 364.644 359.177 364.648 359.208 364.662C359.239 364.677 359.264 364.7 359.28 364.73C359.288 364.76 359.288 364.79 359.28 364.82ZM356.4 366.65V366.73C356.46 366.98 356.56 366.99 356.61 367.01C357.11 367.08 358.26 365.96 358.76 365.1C357.907 365.204 357.112 365.587 356.5 366.19C356.415 366.327 356.376 366.489 356.39 366.65H356.4Z" fill="#C53F3F"/>
<path d="M309.12 353.47C309.12 353.47 365.73 331.47 383.07 335.15C400.41 338.83 400.49 347.9 391.7 356.36C382.91 364.82 369.78 361.56 369.78 361.56C369.78 361.56 380.1 355.38 379.38 351.56C378.66 347.74 372.1 356.47 372.1 356.47C372.1 356.47 337.89 364.84 309.64 362.63L309.12 353.47Z" fill="#C53F3F"/>
<path d="M296.38 352.28C296.051 351.844 295.869 351.316 295.86 350.77C295.876 350.594 295.938 350.426 296.04 350.282C296.141 350.138 296.28 350.023 296.44 349.95C296.533 349.898 296.638 349.871 296.745 349.871C296.852 349.871 296.957 349.898 297.05 349.95C297.91 350.5 298.05 353.47 298.05 353.81C298.054 353.844 298.047 353.879 298.028 353.908C298.01 353.937 297.982 353.959 297.95 353.97C297.919 353.991 297.882 354.002 297.845 354.002C297.808 354.002 297.771 353.991 297.74 353.97C297.229 353.456 296.773 352.889 296.38 352.28ZM297.06 350.46C297.009 350.388 296.945 350.327 296.87 350.28C296.836 350.256 296.796 350.244 296.755 350.244C296.714 350.244 296.674 350.256 296.64 350.28C296.525 350.322 296.424 350.396 296.349 350.493C296.275 350.591 296.23 350.708 296.22 350.83C296.399 351.808 296.92 352.691 297.69 353.32C297.651 352.337 297.438 351.368 297.06 350.46Z" fill="#C53F3F"/>
<path d="M297.74 353.9V353.81C297.64 352.89 298.17 350.67 298.99 350.38C299.125 350.338 299.271 350.342 299.404 350.393C299.536 350.444 299.648 350.538 299.72 350.66C299.908 350.882 300.002 351.17 299.98 351.46C299.88 352.63 298.12 353.9 297.98 353.96C297.952 353.979 297.919 353.989 297.885 353.989C297.851 353.989 297.818 353.979 297.79 353.96C297.769 353.944 297.751 353.924 297.74 353.9ZM299.46 350.95V350.88C299.3 350.69 299.2 350.73 299.15 350.74C298.67 350.9 298.15 352.42 298.15 353.42C298.64 353.01 299.59 352.15 299.65 351.42C299.66 351.258 299.618 351.097 299.53 350.96L299.46 350.95Z" fill="#C53F3F"/>
<path opacity="0.7" d="M309.12 353.47C309.12 353.47 365.73 331.47 383.07 335.15C400.41 338.83 400.49 347.9 391.7 356.36C382.91 364.82 369.78 361.56 369.78 361.56C369.78 361.56 380.1 355.38 379.38 351.56C378.66 347.74 372.1 356.47 372.1 356.47C372.1 356.47 337.89 364.84 309.64 362.63L309.12 353.47Z" fill="white"/>
<path d="M308.43 353.3L311.61 351.84L313.44 363.75L309.02 363.03L308.43 353.3Z" fill="#C53F3F"/>
<path opacity="0.6" d="M308.43 353.3L311.61 351.84L313.44 363.75L309.02 363.03L308.43 353.3Z" fill="white"/>
<path d="M402.11 266C396 300 398.22 322 398.22 322C398.22 322 369.79 321.61 358.11 320.95C351.88 279.74 361.46 264.08 361.46 264.08C364.514 263.468 367.604 263.044 370.71 262.81C371.36 262.76 372.03 262.73 372.71 262.7C378.22 262.696 383.725 263.007 389.2 263.63C390.2 263.74 391.29 263.88 392.31 264.03C397.52 264.82 402.11 266 402.11 266Z" fill="#263238"/>
<path opacity="0.1" d="M402.11 266C401.35 270.22 400.72 274.26 400.2 278.08C399.38 284.08 398.83 289.64 398.47 294.58C398.36 296.07 398.26 297.52 398.19 298.9C397.9 303.96 397.82 308.29 397.83 311.79C397.83 318.37 398.22 322 398.22 322C398.22 322 369.79 321.61 358.11 320.95C351.87 279.74 361.47 264.08 361.47 264.08C364.521 263.467 367.607 263.043 370.71 262.81C371.36 262.76 372.03 262.73 372.71 262.7C378.22 262.691 383.726 263.002 389.2 263.63C390.2 263.74 391.29 263.88 392.31 264.03C397.52 264.81 402.11 266 402.11 266Z" fill="white"/>
<path opacity="0.2" d="M376.72 303.53C384.005 302.665 391.193 301.118 398.19 298.91C397.9 303.97 397.82 308.3 397.83 311.8C384.26 313.05 378.72 310.44 378.72 310.44L376.72 303.53Z" fill="black"/>
<path opacity="0.2" d="M400.2 278.09C399.38 284.09 398.83 289.65 398.47 294.59C394.58 286.67 397.47 277.17 397.47 277.17L400.2 278.09Z" fill="black"/>
<path d="M378.26 317.49H357.58C357.178 317.484 356.793 317.327 356.501 317.052C356.209 316.776 356.03 316.401 356 316L353.12 288.55C353.1 288.366 353.12 288.179 353.177 288.003C353.235 287.827 353.329 287.665 353.454 287.528C353.579 287.391 353.731 287.282 353.901 287.208C354.071 287.134 354.255 287.098 354.44 287.1H375.12C375.514 287.108 375.891 287.26 376.18 287.527C376.47 287.794 376.651 288.158 376.69 288.55L379.58 316C379.606 316.187 379.591 316.378 379.536 316.559C379.482 316.74 379.388 316.907 379.263 317.049C379.138 317.19 378.983 317.303 378.81 317.379C378.637 317.455 378.449 317.493 378.26 317.49Z" fill="#263238"/>
<path opacity="0.6" d="M378.26 317.49H357.58C357.178 317.484 356.793 317.327 356.501 317.052C356.209 316.776 356.03 316.401 356 316L353.12 288.55C353.1 288.366 353.12 288.179 353.177 288.003C353.235 287.827 353.329 287.665 353.454 287.528C353.579 287.391 353.731 287.282 353.901 287.208C354.071 287.134 354.255 287.098 354.44 287.1H375.12C375.514 287.108 375.891 287.26 376.18 287.527C376.47 287.794 376.651 288.158 376.69 288.55L379.58 316C379.606 316.187 379.591 316.378 379.536 316.559C379.482 316.74 379.388 316.907 379.263 317.049C379.138 317.19 378.983 317.303 378.81 317.379C378.637 317.455 378.449 317.493 378.26 317.49Z" fill="white"/>
<path opacity="0.2" d="M377.4 317.49H357.58C357.178 317.484 356.793 317.327 356.501 317.052C356.209 316.776 356.03 316.401 356 316L353.12 288.55C353.1 288.366 353.12 288.179 353.177 288.003C353.235 287.827 353.329 287.665 353.454 287.528C353.579 287.391 353.731 287.282 353.901 287.208C354.071 287.134 354.255 287.098 354.44 287.1H374.26C374.654 287.108 375.031 287.26 375.32 287.527C375.61 287.794 375.791 288.158 375.83 288.55L378.72 316C378.746 316.187 378.731 316.378 378.676 316.559C378.622 316.74 378.528 316.907 378.403 317.049C378.278 317.19 378.123 317.303 377.95 317.379C377.777 317.455 377.589 317.493 377.4 317.49Z" fill="white"/>
<path d="M365.34 300.07C365.055 300.068 364.773 300.126 364.512 300.242C364.252 300.358 364.019 300.528 363.83 300.741C363.64 300.954 363.498 301.205 363.414 301.478C363.33 301.75 363.304 302.037 363.34 302.32C363.399 302.927 363.679 303.491 364.128 303.904C364.576 304.317 365.16 304.551 365.77 304.56C366.054 304.562 366.335 304.504 366.595 304.388C366.855 304.273 367.087 304.104 367.276 303.892C367.466 303.68 367.607 303.43 367.693 303.159C367.778 302.888 367.804 302.602 367.77 302.32C367.16 302.308 366.575 302.072 366.127 301.658C365.679 301.243 365.399 300.678 365.34 300.07Z" fill="#263238"/>
<path opacity="0.3" d="M369.82 289.32H358.89C358.621 289.316 358.359 289.238 358.133 289.093C357.907 288.948 357.726 288.742 357.61 288.5L356.96 287.14H371.38L371 288.5C370.926 288.75 370.768 288.968 370.554 289.117C370.339 289.266 370.081 289.338 369.82 289.32Z" fill="black"/>
<path d="M376.24 302.65L371.46 302.26L371.66 308.62L375.66 310.72L384.88 309.88L385.63 305.59C382.6 301.15 376.24 302.65 376.24 302.65Z" fill="#E4897B"/>
<path d="M402.11 266C407.02 267.48 413.98 296 412.87 302.3C411.76 308.6 399.65 311.3 384.26 310.95V303.51L402.11 298.3L399.11 287.3C399.11 287.3 396.63 279.21 397.74 273.55C398.349 270.63 399.881 267.983 402.11 266Z" fill="#263238"/>
<path opacity="0.1" d="M402.11 266C407.02 267.48 413.98 296 412.87 302.3C411.76 308.6 399.65 311.3 384.26 310.95V303.51L402.11 298.3L399.11 287.3C399.11 287.3 396.63 279.21 397.74 273.55C398.349 270.63 399.881 267.983 402.11 266Z" fill="white"/>
<path d="M386.82 263.31C384.33 265.91 380.42 268.09 374.15 267.86C369.34 267.67 368.67 264.65 369.51 262.99C372.43 262.39 373.75 261.12 374.16 259.5C374.57 257.88 374 255.7 373.16 253.68L381.27 246.85L382.64 245.69C382.64 246.08 382.59 246.49 382.57 246.92C382.476 248.505 382.476 250.095 382.57 251.68C382.84 256.15 383.9 261 386.82 263.31Z" fill="#E4897B"/>
<path opacity="0.2" d="M382.58 251.68C381.07 254.77 378.42 258.5 374.16 259.5C374.6 257.78 374 255.7 373.16 253.68L381.27 246.85C381.7 246.85 382.14 246.85 382.57 246.92C382.479 248.505 382.482 250.095 382.58 251.68Z" fill="black"/>
<path d="M364 233.27C362.81 235.99 362.66 241.83 366.8 240.38C370.94 238.93 366 228.6 364 233.27Z" fill="#263238"/>
<path d="M383.83 239.3C383.47 246.58 383.64 250.87 380 254.62C374.52 260.26 365.48 256.94 363.64 249.68C362 243.13 362.86 232.32 369.96 229.4C371.535 228.755 373.248 228.52 374.938 228.716C376.629 228.912 378.242 229.534 379.627 230.522C381.012 231.511 382.124 232.835 382.859 234.37C383.594 235.905 383.928 237.601 383.83 239.3Z" fill="#E4897B"/>
<path d="M372.79 241.36C372.79 241.95 372.49 242.44 372.1 242.44C371.71 242.44 371.39 241.96 371.38 241.36C371.37 240.76 371.69 240.29 372.07 240.29C372.45 240.29 372.78 240.77 372.79 241.36Z" fill="#263238"/>
<path d="M366.07 241.38C366.07 241.97 365.77 242.45 365.38 242.45C364.99 242.45 364.67 241.97 364.67 241.38C364.67 240.79 364.97 240.31 365.36 240.31C365.75 240.31 366.07 240.78 366.07 241.38Z" fill="#263238"/>
<path d="M368.21 241.67C367.503 243.427 366.554 245.076 365.39 246.57C365.803 246.842 366.268 247.024 366.755 247.105C367.243 247.185 367.742 247.163 368.22 247.04L368.21 241.67Z" fill="#DE5753"/>
<path d="M374.83 239.19C374.77 239.199 374.709 239.192 374.652 239.169C374.596 239.146 374.547 239.108 374.51 239.06C374.251 238.705 373.913 238.415 373.522 238.213C373.132 238.012 372.699 237.905 372.26 237.9C372.168 237.906 372.077 237.876 372.006 237.816C371.935 237.756 371.89 237.672 371.88 237.58C371.876 237.534 371.881 237.488 371.895 237.444C371.909 237.4 371.931 237.359 371.961 237.323C371.991 237.288 372.027 237.259 372.068 237.238C372.109 237.217 372.154 237.204 372.2 237.2C372.756 237.196 373.304 237.324 373.801 237.573C374.298 237.821 374.729 238.183 375.06 238.63C375.117 238.703 375.142 238.796 375.131 238.887C375.12 238.979 375.073 239.063 375 239.12C374.95 239.158 374.892 239.182 374.83 239.19Z" fill="#263238"/>
<path d="M363.15 239.08C363.085 239.099 363.015 239.099 362.95 239.08C362.909 239.06 362.871 239.032 362.841 238.997C362.81 238.962 362.787 238.922 362.772 238.878C362.757 238.835 362.751 238.788 362.754 238.742C362.757 238.696 362.77 238.651 362.79 238.61C363.011 238.101 363.353 237.654 363.785 237.306C364.216 236.957 364.726 236.719 365.27 236.61C365.316 236.604 365.363 236.608 365.407 236.621C365.452 236.633 365.494 236.655 365.53 236.683C365.566 236.712 365.596 236.748 365.619 236.789C365.641 236.829 365.655 236.874 365.66 236.92C365.667 236.965 365.665 237.01 365.654 237.054C365.644 237.098 365.624 237.14 365.597 237.176C365.57 237.212 365.536 237.243 365.497 237.266C365.458 237.289 365.415 237.304 365.37 237.31C364.941 237.391 364.538 237.576 364.198 237.85C363.858 238.124 363.59 238.478 363.42 238.88C363.394 238.932 363.356 238.978 363.309 239.012C363.262 239.047 363.208 239.07 363.15 239.08Z" fill="#263238"/>
<path d="M372.39 233.46C372.39 233.46 374.39 232.02 375.31 233.57C376.23 235.12 376.17 239.25 376.17 239.25L376.57 238.52C376.57 238.52 379.16 247.72 382.91 245.4C386.66 243.08 392.17 233.74 383.41 228.98C383.41 228.98 382.48 226.76 376.69 225.66C370.9 224.56 363.9 228.14 362.69 231.97C361.48 235.8 363.17 237.97 363.17 237.97C363.356 237.136 363.736 236.358 364.28 235.7C364.358 236.09 364.531 236.455 364.784 236.762C365.037 237.069 365.362 237.309 365.73 237.46C365.671 236.677 365.834 235.894 366.2 235.2C366.391 235.88 366.733 236.509 367.2 237.04C367.62 233.1 370.3 232.3 371.14 232.33C371.441 232.363 371.723 232.49 371.948 232.693C372.172 232.896 372.327 233.164 372.39 233.46Z" fill="#263238"/>
<path d="M386.72 245.33C386.452 246.196 386.016 247.001 385.436 247.698C384.856 248.395 384.143 248.97 383.34 249.39C381.18 250.5 379.6 248.67 379.78 246.39C379.94 244.32 381.25 241.25 383.62 241.1C384.138 241.077 384.655 241.182 385.123 241.406C385.591 241.63 385.996 241.966 386.303 242.385C386.61 242.803 386.808 243.291 386.881 243.805C386.954 244.319 386.898 244.843 386.72 245.33Z" fill="#E4897B"/>
<path d="M368.45 249.48C369.074 250.133 369.649 250.832 370.17 251.57L370.6 251.36C372.53 250.36 373.11 249.29 373.16 248.36C373.173 247.912 373.08 247.466 372.89 247.06C372.788 246.828 372.654 246.613 372.49 246.42C371.569 247.555 370.412 248.476 369.1 249.12C368.71 249.36 368.45 249.48 368.45 249.48Z" fill="#263238"/>
<path d="M369.1 249.14L369.63 249.74C371.44 248.82 372.63 247.92 372.89 247.08C372.788 246.848 372.654 246.633 372.49 246.44C371.569 247.575 370.412 248.496 369.1 249.14Z" fill="white"/>
<path d="M370.6 251.36C372.53 250.36 373.11 249.29 373.16 248.36C372.433 248.746 371.78 249.257 371.23 249.87C370.868 250.287 370.647 250.809 370.6 251.36Z" fill="#A24E3F"/>
<path d="M194.41 273.18L194.93 278.73C194.93 278.73 227.41 283.67 232.61 288.73C237.81 293.79 256.26 373.82 256.26 373.82L248.82 374.82C248.82 374.82 223 315.82 221.62 307.28C221.62 307.28 198.88 308.13 183.36 308.13C167.84 308.13 165.99 273.13 165.99 273.13L194.41 273.18Z" fill="#C53F3F"/>
<path opacity="0.3" d="M256.26 373.83L248.82 374.83C248.82 374.83 238.26 350.7 230.29 331.07C225.78 320 222.11 310.36 221.62 307.28C221.62 307.28 205.88 307.86 191.62 308.06C188.74 308.06 185.93 308.12 183.32 308.12C167.8 308.12 165.95 273.12 165.95 273.12H194.37L194.89 278.67C194.89 278.67 227.38 283.6 232.57 288.67C237.76 293.74 256.26 373.83 256.26 373.83Z" fill="white"/>
<path d="M262 381C257 381 256.33 380.92 253.51 380.82C251.1 380.74 250.51 381.04 248.59 381C246.97 381 247.03 379.41 247.53 377.63C247.78 376.73 248.16 374.84 248.53 373.4L255.87 372.86C256.87 374.86 259.23 377.65 262.05 378.03C264.87 378.41 264 381 262 381Z" fill="#263238"/>
<path opacity="0.2" d="M230.29 331.11C225.78 320.04 222.11 310.4 221.62 307.32C221.62 307.32 205.88 307.9 191.62 308.1L190.08 280.91C190.08 280.91 210.16 283.79 223.66 295.42C225.37 296.86 228.7 319.13 230.29 331.11Z" fill="black"/>
<path d="M223.29 313.33H165.18V309.76C165.18 308.569 165.653 307.427 166.495 306.585C167.337 305.743 168.479 305.27 169.67 305.27H218.8C219.991 305.27 221.133 305.743 221.975 306.585C222.817 307.427 223.29 308.569 223.29 309.76V313.33Z" fill="#263238"/>
<path opacity="0.2" d="M223.29 313.33H165.18V309.76C165.18 308.569 165.653 307.427 166.495 306.585C167.337 305.743 168.479 305.27 169.67 305.27H218.8C219.991 305.27 221.133 305.743 221.975 306.585C222.817 307.427 223.29 308.569 223.29 309.76V313.33Z" fill="white"/>
<path d="M221.27 365.58L198.87 363.63V334.21H191V363.62L168.52 365.62C167.564 365.714 166.678 366.161 166.033 366.872C165.388 367.584 165.03 368.51 165.03 369.47V372.47H224.77V369.47C224.779 368.501 224.425 367.564 223.777 366.844C223.129 366.124 222.234 365.673 221.27 365.58Z" fill="#263238"/>
<path d="M172.27 376.12C172.27 377.139 171.968 378.134 171.402 378.981C170.836 379.828 170.032 380.488 169.091 380.878C168.15 381.268 167.114 381.37 166.115 381.171C165.116 380.972 164.199 380.482 163.478 379.762C162.758 379.041 162.268 378.124 162.069 377.125C161.87 376.126 161.972 375.09 162.362 374.149C162.752 373.208 163.412 372.404 164.259 371.838C165.106 371.272 166.101 370.97 167.12 370.97C168.486 370.97 169.796 371.513 170.762 372.478C171.727 373.444 172.27 374.754 172.27 376.12Z" fill="#263238"/>
<path d="M222.66 381.27C225.504 381.27 227.81 378.964 227.81 376.12C227.81 373.276 225.504 370.97 222.66 370.97C219.816 370.97 217.51 373.276 217.51 376.12C217.51 378.964 219.816 381.27 222.66 381.27Z" fill="#263238"/>
<path d="M189.64 311.41H200.23V336.5C200.23 337.484 199.839 338.428 199.143 339.123C198.448 339.819 197.504 340.21 196.52 340.21H193.36C192.376 340.21 191.432 339.819 190.737 339.123C190.041 338.428 189.65 337.484 189.65 336.5V311.41H189.64Z" fill="#263238"/>
<path opacity="0.2" d="M189.64 311.41H200.23V336.5C200.23 337.484 199.839 338.428 199.143 339.123C198.448 339.819 197.504 340.21 196.52 340.21H193.36C192.376 340.21 191.432 339.819 190.737 339.123C190.041 338.428 189.65 337.484 189.65 336.5V311.41H189.64Z" fill="white"/>
<path d="M164.77 314.26H223.69C224.69 314.26 225.5 313.45 225.5 312.45V312.04C225.5 311.04 224.69 310.23 223.69 310.23H164.77C163.77 310.23 162.96 311.04 162.96 312.04V312.45C162.96 313.45 163.77 314.26 164.77 314.26Z" fill="#263238"/>
<path opacity="0.2" d="M172.27 376.12C172.27 377.139 171.968 378.134 171.402 378.981C170.836 379.828 170.032 380.488 169.091 380.878C168.15 381.268 167.114 381.37 166.115 381.171C165.116 380.972 164.199 380.482 163.478 379.762C162.758 379.041 162.268 378.124 162.069 377.125C161.87 376.126 161.972 375.09 162.362 374.149C162.752 373.208 163.412 372.404 164.259 371.838C165.106 371.272 166.101 370.97 167.12 370.97C168.486 370.97 169.796 371.513 170.762 372.478C171.727 373.444 172.27 374.754 172.27 376.12Z" fill="white"/>
<path opacity="0.2" d="M222.66 381.27C225.504 381.27 227.81 378.964 227.81 376.12C227.81 373.276 225.504 370.97 222.66 370.97C219.816 370.97 217.51 373.276 217.51 376.12C217.51 378.964 219.816 381.27 222.66 381.27Z" fill="white"/>
<path d="M228.23 263.86H210.28C205.02 263.86 201.22 259.13 201.8 253.31L202.56 245.53C203.14 239.7 207.86 234.97 213.12 234.97H231.07C236.33 234.97 240.13 239.7 239.56 245.53L238.79 253.31C238.22 259.13 233.49 263.86 228.23 263.86Z" fill="#263238"/>
<path opacity="0.2" d="M228.23 263.86H210.28C205.02 263.86 201.22 259.13 201.8 253.31L202.56 245.53C203.14 239.7 207.86 234.97 213.12 234.97H231.07C236.33 234.97 240.13 239.7 239.56 245.53L238.79 253.31C238.22 259.13 233.49 263.86 228.23 263.86Z" fill="white"/>
<path d="M226.58 260.07H216C212.89 260.07 210.64 257.28 211 253.83L211.46 249.24C211.79 245.79 214.59 243 217.7 243H228.3C231.41 243 233.66 245.79 233.3 249.24L232.84 253.83C232.48 257.28 229.69 260.07 226.58 260.07Z" fill="#263238"/>
<path d="M218.16 253.21C218.16 253.21 215.74 301.86 205.26 310.21H216.47C216.47 310.21 226.47 293.64 227.2 253.21H218.16Z" fill="#263238"/>
<path d="M227.18 232.94L229.11 231.94C229.472 231.755 229.873 231.658 230.28 231.658C230.687 231.658 231.088 231.755 231.45 231.94L234.91 233.64C235.591 233.975 236.182 234.469 236.633 235.079C237.083 235.69 237.381 236.4 237.5 237.15L237.66 238.1C234.57 240.04 229.81 239.86 229.81 239.86L228.44 239.97C228.161 239.999 227.878 239.972 227.609 239.891C227.34 239.81 227.09 239.676 226.873 239.497C226.657 239.319 226.477 239.099 226.346 238.85C226.215 238.602 226.135 238.33 226.11 238.05L225.87 235.35C225.824 234.864 225.925 234.375 226.158 233.945C226.391 233.516 226.747 233.166 227.18 232.94Z" fill="#B97964"/>
<path opacity="0.2" d="M227.18 232.94L229.11 231.94C229.472 231.755 229.873 231.658 230.28 231.658C230.687 231.658 231.088 231.755 231.45 231.94L234.91 233.64C235.591 233.975 236.182 234.469 236.633 235.079C237.083 235.69 237.381 236.4 237.5 237.15L237.66 238.1C234.57 240.04 229.81 239.86 229.81 239.86L228.44 239.97C228.161 239.999 227.878 239.972 227.609 239.891C227.34 239.81 227.09 239.676 226.873 239.497C226.657 239.319 226.477 239.099 226.346 238.85C226.215 238.602 226.135 238.33 226.11 238.05L225.87 235.35C225.824 234.864 225.925 234.375 226.158 233.945C226.391 233.516 226.747 233.166 227.18 232.94Z" fill="black"/>
<path d="M213 235.32L206 244.17H199.34L200.21 231.82C205.25 232.79 213 235.32 213 235.32Z" fill="#C53F3F"/>
<path opacity="0.2" d="M205.41 244.17H199.65L203.23 235.32C203.23 235.32 205.28 238.43 205.41 244.17Z" fill="black"/>
<path d="M194.84 276.52L165.53 273.8C166.45 270.68 167.26 267.62 167.94 264.67C168.8 261.06 169.48 257.6 170.02 254.37C170.56 251.14 171.02 248.14 171.34 245.42L171.43 244.65C171.43 244.22 171.53 243.8 171.57 243.4C171.86 240.77 172.04 238.48 172.16 236.59C172.41 232.9 172.41 230.77 172.41 230.77C182.452 228.847 192.816 229.462 202.56 232.56C206.92 244.84 194.84 276.52 194.84 276.52Z" fill="#C53F3F"/>
<path d="M194.74 234.52C194.295 235.442 193.614 236.231 192.767 236.806C191.919 237.381 190.935 237.723 189.913 237.796C188.892 237.869 187.869 237.671 186.948 237.222C186.028 236.773 185.242 236.09 184.67 235.24L183.4 233.35L181.84 231C184.46 229.45 185.49 224.49 185.84 220.23C185.95 218.89 185.99 217.63 185.99 216.56L192.57 225.56C192.11 226.513 191.774 227.521 191.57 228.56C191.487 228.988 191.453 229.424 191.47 229.86C191.48 231.61 192.35 233.23 194.74 234.52Z" fill="#B97964"/>
<path opacity="0.2" d="M192.55 225.61C192.09 226.563 191.754 227.571 191.55 228.61C189.82 230.83 187.13 233.18 183.42 233.33L181.84 231C184.46 229.45 185.49 224.49 185.84 220.23C185.95 218.89 185.99 217.63 185.99 216.56L192.55 225.61Z" fill="black"/>
<path d="M176.74 210.58C176.74 210.58 173.49 209.36 174.45 207.11C175.41 204.86 176.57 204.88 176.57 204.88C176.079 203.96 175.812 202.937 175.791 201.894C175.77 200.852 175.996 199.819 176.45 198.88C178.06 195.88 181.62 197.1 181.62 197.1C181.634 196.158 181.969 195.248 182.568 194.521C183.168 193.794 183.997 193.293 184.92 193.1C185.862 192.944 186.828 193.1 187.673 193.544C188.518 193.988 189.194 194.696 189.6 195.56C189.6 195.56 191.84 192.65 195.12 193.45C198.4 194.25 199.06 198.82 199.06 198.82C199.956 198.528 200.93 198.592 201.779 199C202.629 199.408 203.288 200.128 203.62 201.01C204.066 201.93 204.252 202.955 204.159 203.974C204.066 204.992 203.696 205.966 203.09 206.79C203.09 206.79 205.18 205.79 205.87 209.16C206.56 212.53 203.04 215.49 203.04 215.49C203.04 215.49 204.94 215.72 203.96 218.21C202.98 220.7 199.89 220.74 199.89 220.74C199.89 220.74 201.09 221.35 198.82 223.4C196.55 225.45 189.24 222.52 189.24 222.52L176.74 210.58Z" fill="#263238"/>
<path d="M185.68 205.24C178.68 205.6 176.68 209.46 176.51 216.69C176.34 225.69 178.67 232 187.3 229.62C199 226.39 197.28 204.63 185.68 205.24Z" fill="#B97964"/>
<path d="M181 216.06C180.496 217.132 179.865 218.139 179.12 219.06C179.341 219.339 179.634 219.551 179.967 219.675C180.3 219.798 180.661 219.828 181.01 219.76L181 216.06Z" fill="#A24E3F"/>
<path d="M185.25 215.26C185.25 215.84 185.59 216.26 185.97 216.26C186.35 216.26 186.65 215.78 186.64 215.2C186.63 214.62 186.3 214.2 185.91 214.2C185.52 214.2 185.23 214.69 185.25 215.26Z" fill="#263238"/>
<path d="M186.07 214.23L184.81 213.77C184.81 213.77 185.46 214.81 186.07 214.23Z" fill="#263238"/>
<path d="M178.1 215.35C178.1 215.93 178.44 216.35 178.83 216.35C179.22 216.35 179.51 215.87 179.49 215.29C179.47 214.71 179.15 214.29 178.77 214.29C178.39 214.29 178.09 214.78 178.1 215.35Z" fill="#263238"/>
<path d="M178.93 214.31L177.66 213.86C177.66 213.86 178.32 214.89 178.93 214.31Z" fill="#263238"/>
<path d="M188.15 211.63C188.108 211.631 188.067 211.622 188.029 211.605C187.991 211.588 187.957 211.562 187.93 211.53C187.552 211.193 187.103 210.946 186.617 210.808C186.13 210.669 185.618 210.642 185.12 210.73C185.081 210.737 185.041 210.737 185.003 210.729C184.964 210.72 184.928 210.705 184.895 210.683C184.863 210.66 184.835 210.632 184.813 210.599C184.792 210.566 184.777 210.529 184.77 210.49C184.758 210.413 184.777 210.335 184.821 210.272C184.866 210.208 184.934 210.165 185.01 210.15C185.609 210.04 186.226 210.074 186.81 210.248C187.394 210.421 187.928 210.731 188.37 211.15C188.425 211.206 188.456 211.281 188.456 211.36C188.456 211.439 188.425 211.514 188.37 211.57C188.307 211.617 188.228 211.639 188.15 211.63Z" fill="#263238"/>
<path d="M177.22 211.42C177.174 211.42 177.13 211.41 177.088 211.391C177.047 211.372 177.01 211.344 176.98 211.31C176.932 211.246 176.912 211.166 176.923 211.088C176.934 211.009 176.976 210.938 177.04 210.89C177.45 210.545 177.933 210.297 178.452 210.164C178.972 210.031 179.514 210.016 180.04 210.12C180.078 210.131 180.114 210.15 180.145 210.176C180.176 210.201 180.201 210.232 180.22 210.268C180.239 210.303 180.25 210.342 180.253 210.382C180.257 210.422 180.252 210.462 180.24 210.5C180.215 210.573 180.162 210.634 180.093 210.67C180.024 210.705 179.944 210.712 179.87 210.69C179.431 210.611 178.979 210.631 178.548 210.749C178.117 210.866 177.718 211.078 177.38 211.37C177.332 211.401 177.277 211.418 177.22 211.42Z" fill="#263238"/>
<path d="M193.93 216.61C193.93 216.61 190.36 211.04 190.63 206.61C190.63 206.61 176.49 201.68 176.54 215.76C176.54 215.76 174.54 203.36 186.54 202.45C198.54 201.54 199.4 219.11 193.47 224.67C193.46 224.65 196.14 220.09 193.93 216.61Z" fill="#263238"/>
<path d="M192.87 218.15C192.879 217.746 192.968 217.348 193.131 216.978C193.295 216.608 193.529 216.275 193.822 215.996C194.115 215.717 194.459 215.499 194.837 215.354C195.214 215.209 195.616 215.139 196.02 215.15C198.2 215.28 199.46 219.67 194.13 221.02C193.37 221.23 192.89 220.5 192.87 218.15Z" fill="#B97964"/>
<path d="M182.69 223.83C182.49 223.844 182.29 223.844 182.09 223.83C182.051 223.823 182.014 223.808 181.981 223.787C181.948 223.765 181.92 223.737 181.897 223.705C181.875 223.672 181.86 223.636 181.851 223.597C181.843 223.559 181.843 223.519 181.85 223.48C181.856 223.442 181.87 223.405 181.89 223.372C181.911 223.339 181.938 223.31 181.969 223.288C182.001 223.266 182.037 223.25 182.075 223.242C182.113 223.233 182.152 223.233 182.19 223.24C182.943 223.372 183.719 223.247 184.392 222.884C185.065 222.521 185.597 221.942 185.9 221.24C185.914 221.203 185.936 221.17 185.963 221.141C185.991 221.113 186.024 221.09 186.06 221.074C186.096 221.058 186.135 221.05 186.174 221.049C186.214 221.049 186.253 221.056 186.29 221.07C186.327 221.084 186.36 221.106 186.389 221.133C186.417 221.161 186.44 221.194 186.456 221.23C186.472 221.266 186.48 221.305 186.481 221.344C186.482 221.384 186.474 221.423 186.46 221.46C186.153 222.196 185.626 222.819 184.951 223.243C184.276 223.668 183.486 223.873 182.69 223.83Z" fill="#263238"/>
<path d="M196.5 214.06C194.83 205.39 182.01 198.11 177.2 208.19C178.006 205.664 179.566 203.444 181.67 201.83C181.67 201.83 194.67 198.12 196.96 212.93L196.5 214.06Z" fill="#C53F3F"/>
<path d="M189.67 381C184.67 381 184 380.92 181.18 380.82C178.77 380.74 178.18 381.04 176.26 381C174.64 381 174.7 379.41 175.2 377.63C175.45 376.73 175.83 374.84 176.2 373.4L183.54 372.86C184.54 374.86 186.9 377.65 189.72 378.03C192.54 378.41 191.66 381 189.67 381Z" fill="#263238"/>
<path d="M166 273.18C166 273.18 156 288.05 161.42 300.27C166.84 312.49 194.25 306.97 194.25 306.97L176.19 373.43L184.83 374.86C184.83 374.86 215.46 308.99 216.24 297.76C217.02 286.53 183.95 279.32 183.95 279.32L166 273.18Z" fill="#C53F3F"/>
<path opacity="0.3" d="M166 273.18C166 273.18 156 288.05 161.42 300.27C166.84 312.49 194.25 306.97 194.25 306.97L176.19 373.43L184.83 374.86C184.83 374.86 215.46 308.99 216.24 297.76C217.02 286.53 183.95 279.32 183.95 279.32L166 273.18Z" fill="white"/>
<path opacity="0.2" d="M196.5 239C196.5 239 182.5 248.86 171.43 244.62C171.43 244.19 171.53 243.77 171.57 243.37C171.86 240.74 172.04 238.45 172.16 236.56C175.748 234.921 179.472 233.599 183.29 232.61C187.22 235.604 191.713 237.777 196.5 239Z" fill="black"/>
<path d="M177 230.79C183.16 233.79 189.52 237.52 196.23 238.89C200.09 238.64 204.41 237.07 208.29 236.01L219.92 232.49C220.418 232.333 220.957 232.368 221.431 232.587C221.905 232.806 222.281 233.193 222.484 233.674C222.688 234.155 222.705 234.695 222.532 235.188C222.36 235.681 222.009 236.091 221.55 236.34C217.92 238.34 214.26 240.18 210.47 241.86C205.79 243.78 201.47 246.02 196.19 246.5C194.295 246.478 192.412 246.202 190.59 245.68C184.442 243.877 178.523 241.37 172.95 238.21C172.063 237.63 171.426 236.738 171.166 235.711C170.905 234.684 171.04 233.596 171.542 232.663C172.045 231.73 172.88 231.02 173.881 230.673C174.883 230.326 175.978 230.368 176.95 230.79H177Z" fill="#B97864"/>
<path d="M173.69 229.68C168.3 230.96 168.12 240.21 173.07 244.55L185.07 234.42C185.07 234.42 180.08 228.16 173.69 229.68Z" fill="#C53F3F"/>
<path d="M220.23 232.54L226.88 232.38L223.88 239.11C223.88 239.11 217.88 238.9 218.17 235.84L220.23 232.54Z" fill="#B97964"/>
<path d="M232.59 235.67L228.03 240.58L223.86 239.11L226.88 232.38L232.59 235.67Z" fill="#B97964"/>
<path d="M321.88 313.51C326.53 323.13 331.01 332.75 334.04 343.05C335.43 350.05 335.69 357.17 336.21 364.12C336.57 369.87 336.78 375.61 336.86 381.38L331.71 381.92C330.08 373.81 328.55 364.76 327.13 356.58C326.45 352.88 325.93 349.24 325 345.68C321.46 336.51 316.55 327.07 312.48 318.05L321.88 313.51Z" fill="#DC897C"/>
<path d="M329.56 326.1L321.41 330L316.35 332.45L313.28 325.07L310.07 317.34L312.78 303.25C321.1 306.89 329.56 326.1 329.56 326.1Z" fill="#C53F3F"/>
<path opacity="0.2" d="M321.41 330L316.35 332.45L313.28 325.07C313.91 320.89 314.44 317.34 314.44 317.34C314.44 317.34 320.36 322.65 321.41 330Z" fill="black"/>
<path d="M297 277.7C297.09 278.3 297.48 278.7 297.87 278.7C298.26 278.7 298.5 278.11 298.41 277.51C298.32 276.91 297.92 276.51 297.53 276.51C297.14 276.51 296.85 277.11 297 277.7Z" fill="#263238"/>
<path d="M297.37 278.74C298.361 280.452 299.583 282.02 301 283.4C300.641 283.758 300.207 284.033 299.731 284.205C299.254 284.378 298.745 284.444 298.24 284.4L297.37 278.74Z" fill="#DE5753"/>
<path d="M294.25 274.73C294.161 274.727 294.075 274.691 294.01 274.63C293.945 274.563 293.909 274.473 293.909 274.38C293.909 274.287 293.945 274.197 294.01 274.13C294.401 273.729 294.884 273.428 295.417 273.254C295.95 273.079 296.517 273.037 297.07 273.13C297.116 273.139 297.159 273.158 297.197 273.184C297.235 273.211 297.268 273.244 297.293 273.283C297.318 273.322 297.335 273.366 297.343 273.412C297.351 273.458 297.35 273.505 297.34 273.55C297.331 273.595 297.312 273.639 297.286 273.677C297.259 273.715 297.226 273.748 297.187 273.773C297.148 273.798 297.104 273.815 297.058 273.823C297.012 273.831 296.965 273.83 296.92 273.82C296.48 273.757 296.032 273.801 295.613 273.947C295.194 274.093 294.815 274.338 294.51 274.66C294.473 274.688 294.432 274.709 294.387 274.721C294.342 274.733 294.296 274.736 294.25 274.73Z" fill="#263238"/>
<path d="M298.86 286.74C298.669 289.154 297.639 291.425 295.95 293.16C294.834 294.306 293.464 295.173 291.95 295.69C290.501 296.193 288.95 296.327 287.437 296.081C285.923 295.835 284.495 295.216 283.28 294.28C279 291.1 278.44 286.77 276.86 279.52C276.471 277.839 276.518 276.087 276.997 274.43C277.476 272.772 278.371 271.265 279.596 270.05C280.821 268.836 282.337 267.955 283.998 267.491C285.66 267.027 287.413 266.996 289.09 267.4C296.73 269.21 299.41 279.92 298.86 286.74Z" fill="#E4897B"/>
<path d="M279.61 291.35C282.61 293.24 293.95 287.93 292.08 279C292.08 279 296.55 274.11 296.33 268.48C296.11 262.85 292.33 260.48 288.21 261.54C284.55 262.43 284.56 264.42 284.56 264.42C284.56 264.42 267.4 265.63 270.72 272.74C263.42 280 275.92 289 279.61 291.35Z" fill="#263238"/>
<path d="M289 280.39C289.405 282.191 290.393 283.807 291.81 284.99C293.68 286.53 295.2 285.17 295.17 282.99C295.17 280.99 294.17 277.82 292 277.13C289.83 276.44 288.58 278.22 289 280.39Z" fill="#E4897B"/>
<path opacity="0.2" d="M298.34 289.26C297.841 290.72 297.025 292.052 295.95 293.16C294.834 294.306 293.464 295.173 291.95 295.69C290.933 295.175 289.957 294.584 289.03 293.92L290.55 290.19C290.55 290.19 295.21 292.47 298.34 289.26Z" fill="black"/>
<path d="M282.05 300.5L280.77 291.73C280.77 291.73 286.48 287.73 292.46 290.42L301.46 301.27L282.05 300.5Z" fill="#E4897B"/>
<path d="M302.5 300.19L300.41 297.06C300.41 297.06 285.25 291.45 278.64 298.64C278.64 298.64 293.43 306.46 302.5 300.19Z" fill="#C53F3F"/>
<path opacity="0.2" d="M302.5 300.19L300.41 297.06C300.41 297.06 285.25 291.45 278.64 298.64C278.64 298.64 293.43 306.46 302.5 300.19Z" fill="black"/>
<path d="M244.29 385.22L238.58 381.54L240.77 378.27L246.72 369.39L252.44 373.07L245.86 382.88L244.29 385.22Z" fill="#E4897B"/>
<path d="M239 381.07L247 380.99C247.13 380.993 247.255 381.039 247.356 381.12C247.458 381.201 247.529 381.314 247.56 381.44L248.9 387.25C248.949 387.5 248.901 387.759 248.765 387.975C248.629 388.19 248.417 388.346 248.17 388.41H247.96C245.38 388.41 243.51 388.25 240.28 388.28C238.28 388.28 232.28 388.57 229.54 388.59C226.8 388.61 226.4 385.91 227.54 385.65C232.54 384.5 236.36 382.94 237.96 381.47C238.246 381.214 238.616 381.072 239 381.07Z" fill="#263238"/>
<path d="M240.54 376.06L251 378.88L307.78 335.8L278.65 329.42C276.569 328.975 274.403 329.174 272.438 329.99C270.473 330.807 268.803 332.202 267.65 333.99L240.54 376.06Z" fill="#263238"/>
<path opacity="0.2" d="M240.54 376.06L251 378.88L307.78 335.8L278.65 329.42C276.569 328.975 274.403 329.174 272.438 329.99C270.473 330.807 268.803 332.202 267.65 333.99L240.54 376.06Z" fill="black"/>
<path d="M209.5 385.43L203.6 382.06L205.62 378.68L211.09 369.5L216.99 372.87L210.94 383.01L209.5 385.43Z" fill="#E4897B"/>
<path d="M203.83 380.93H211.83C211.96 380.931 212.086 380.976 212.188 381.058C212.29 381.139 212.361 381.253 212.39 381.38L213.68 387.21C213.725 387.461 213.673 387.72 213.534 387.934C213.394 388.148 213.178 388.3 212.93 388.36H212.72C210.15 388.36 208.27 388.16 205.04 388.16C203.04 388.16 197.04 388.37 194.3 388.37C191.56 388.37 191.19 385.65 192.3 385.37C197.3 384.27 201.15 382.75 202.77 381.3C203.067 381.053 203.444 380.922 203.83 380.93Z" fill="#263238"/>
<path d="M321.48 358.42L281.78 358.52C280.78 355 279.52 342.75 275.64 327.6C274.59 323.49 273.34 319.17 271.87 314.74C270.649 310.734 269.166 306.812 267.43 303C271.022 300.829 274.969 299.309 279.09 298.51C296.66 295.51 312.78 303.25 312.78 303.25C312.78 303.25 319.75 322.65 321.48 358.42Z" fill="#C53F3F"/>
<path opacity="0.2" d="M275.64 327.6C274.59 323.49 273.34 319.17 271.87 314.74L274.64 313.62C274.64 313.62 279 323.45 275.64 327.6Z" fill="black"/>
<path d="M258.27 334.4L262.88 336.58L264.64 328.82C264.64 328.82 260.96 327.53 258.2 329.41L258.27 334.4Z" fill="#E4897B"/>
<path d="M269.49 339.21L269.7 332.14L264.64 328.82L262.88 336.58L269.49 339.21Z" fill="#E4897B"/>
<path d="M272.64 315.15C264.97 319.3 256.21 323.15 249.54 328.58C249.39 328.71 249.44 328.77 249.61 328.19C249.642 327.821 249.594 327.449 249.47 327.1C249.359 326.72 249.114 326.393 248.78 326.18C248.65 326.13 248.73 326.25 248.91 326.37C249.16 326.526 249.424 326.656 249.7 326.76C252.78 327.93 257.05 328.32 260.5 328.76L261.02 333.91C259.93 334.22 258.91 334.43 257.84 334.63C253.84 335.32 249.69 335.81 245.48 334.42C243.671 333.876 242.144 332.649 241.224 330.999C240.304 329.349 240.062 327.405 240.55 325.58C242.61 318.27 261.25 309.15 268.09 305.76L272.64 315.16V315.15Z" fill="#DC897C"/>
<path d="M279.91 350.07L278.13 354.63C278.13 354.63 256.86 328.35 245.13 326.85C233.4 325.35 206.13 375.29 206.13 375.29L216.47 378.42L245.57 352.02C257.57 372.96 271.92 388.32 288.98 388.32H305.64C324.27 388.32 324.48 367.54 320.8 349.92L279.91 350.07Z" fill="#263238"/>
<path d="M267.43 303C260.76 305.44 252.92 312.84 252.92 312.84C252.92 312.84 259.52 324.28 260.18 323.84C260.84 323.4 274.38 319.52 274.38 319.52C274.38 319.52 277.14 315.94 275.02 309.88C274.469 308.169 273.477 306.632 272.145 305.425C270.813 304.217 269.187 303.381 267.43 303Z" fill="#C53F3F"/>
<path d="M334.41 377.93L341.66 378.29L337.83 385.37C337.83 385.37 331.38 384.66 331.89 381.37L334.41 377.93Z" fill="#E4897B"/>
<path d="M347.6 382.33L342.25 387.3L337.83 385.37L341.66 378.29L347.6 382.33Z" fill="#E4897B"/>
<path d="M109.72 306.22C114.58 311.12 119.37 316.61 125.19 320.32C125.19 320.32 125.55 320.51 125.58 320.54C125.423 320.482 125.257 320.455 125.09 320.46C124.94 320.46 125.18 320.46 125.44 320.46C132.08 318.58 138.25 314.25 144.36 310.92C144.833 310.635 145.394 310.534 145.937 310.636C146.479 310.738 146.966 311.036 147.303 311.473C147.64 311.911 147.805 312.456 147.765 313.007C147.726 313.558 147.486 314.075 147.09 314.46C142.33 318.87 129.5 330.66 122.76 328.19C118.64 326.68 115.2 323.84 111.96 321.11C108.795 318.367 105.812 315.421 103.03 312.29C99.22 307.76 105.58 301.99 109.72 306.23V306.22Z" fill="#E9B376"/>
<path d="M118.08 313.14C117.23 319.5 112.08 325.74 112.08 325.74L111 325L105.74 321.51C105.74 321.51 105.64 321.21 105.49 320.68C105.34 320.15 105.15 319.53 104.92 318.68C103.71 314.44 101.53 306.51 101.26 303.22C107.79 303.07 110.73 306.18 118.08 313.14Z" fill="#C53F3F"/>
<path opacity="0.7" d="M118.08 313.14C117.23 319.5 112.08 325.74 112.08 325.74L111 325L105.74 321.51C105.74 321.51 105.64 321.21 105.49 320.68C105.34 320.15 105.15 319.53 104.92 318.68C103.71 314.44 101.53 306.51 101.26 303.22C107.79 303.07 110.73 306.18 118.08 313.14Z" fill="white"/>
<path opacity="0.2" d="M111 325L105.74 321.51C105.74 321.51 105.64 321.21 105.49 320.68C105.685 319.07 105.979 317.474 106.37 315.9C107.756 316.99 108.888 318.369 109.687 319.94C110.487 321.511 110.935 323.238 111 325Z" fill="black"/>
<path d="M104.6 344.5L109.09 352.36C121.09 349.56 159.67 343.68 164.4 356.91C170.29 373.34 127.76 386.45 104.23 387.25C80.7 388.05 60.17 382.45 75.05 348.14L104.6 344.5Z" fill="#263238"/>
<path opacity="0.2" d="M104.6 344.5L109.09 352.36C121.09 349.56 159.67 343.68 164.4 356.91C170.29 373.34 127.76 386.45 104.23 387.25C80.7 388.05 60.17 382.45 75.05 348.14L104.6 344.5Z" fill="black"/>
<path d="M157.59 380.14C157.563 380.157 157.532 380.166 157.5 380.166C157.468 380.166 157.437 380.157 157.41 380.14C157.396 380.118 157.388 380.092 157.388 380.065C157.388 380.038 157.396 380.012 157.41 379.99C157.49 379.73 158.27 377.47 159.06 377.23C159.143 377.21 159.23 377.211 159.312 377.234C159.394 377.257 159.469 377.3 159.53 377.36C159.638 377.452 159.721 377.57 159.77 377.703C159.819 377.836 159.833 377.98 159.81 378.12C159.681 378.545 159.422 378.919 159.07 379.19C158.611 379.557 158.115 379.875 157.59 380.14ZM157.79 379.71C158.525 379.391 159.118 378.815 159.46 378.09C159.482 377.996 159.476 377.897 159.442 377.806C159.409 377.715 159.349 377.637 159.27 377.58C159.248 377.552 159.218 377.532 159.184 377.521C159.15 377.511 159.114 377.51 159.08 377.52C159.013 377.544 158.952 377.582 158.9 377.63C158.407 378.25 158.031 378.955 157.79 379.71Z" fill="#263238"/>
<path d="M157.54 380.17C157.52 380.186 157.496 380.195 157.47 380.195C157.444 380.195 157.42 380.186 157.4 380.17C157.32 380.11 156.24 378.74 156.4 377.81C156.419 377.695 156.462 377.585 156.526 377.486C156.589 377.388 156.672 377.304 156.77 377.24C156.855 377.164 156.962 377.116 157.075 377.106C157.189 377.095 157.302 377.121 157.4 377.18C157.97 377.59 157.9 379.42 157.62 380.12V380.19L157.54 380.17ZM156.93 377.49C156.83 377.57 156.763 377.684 156.74 377.81C156.77 378.503 157.026 379.167 157.47 379.7C157.64 378.92 157.59 377.63 157.25 377.4C157.25 377.4 157.15 377.32 156.98 377.4V377.45L156.93 377.49Z" fill="#263238"/>
<path d="M116.22 384C116.235 383.975 116.258 383.955 116.284 383.942C116.311 383.93 116.341 383.926 116.37 383.93C116.397 383.932 116.422 383.943 116.442 383.961C116.462 383.979 116.476 384.003 116.48 384.03C116.54 384.3 116.95 386.66 116.38 387.25C116.316 387.307 116.238 387.347 116.153 387.364C116.069 387.382 115.982 387.377 115.9 387.35C115.759 387.327 115.628 387.265 115.52 387.171C115.412 387.078 115.333 386.956 115.29 386.82C115.191 386.391 115.237 385.941 115.42 385.54C115.632 385 115.901 384.484 116.22 384ZM116.22 384.48C115.733 385.114 115.489 385.901 115.53 386.7C115.557 386.796 115.613 386.882 115.69 386.946C115.766 387.01 115.861 387.05 115.96 387.06C115.988 387.079 116.021 387.089 116.055 387.089C116.089 387.089 116.122 387.079 116.15 387.06C116.195 387.007 116.229 386.946 116.25 386.88C116.4 386.087 116.4 385.273 116.25 384.48H116.22Z" fill="#263238"/>
<path d="M131.62 372.09L121.94 375.54L117.29 377.2L118.48 382.29L122.98 381.33L133.98 378.98L131.62 372.09Z" fill="#EBB376"/>
<path d="M119.75 382.53L118.93 376.53C118.919 376.451 118.892 376.375 118.852 376.306C118.811 376.237 118.757 376.177 118.692 376.13C118.628 376.082 118.555 376.048 118.477 376.029C118.4 376.01 118.319 376.007 118.24 376.02L115.24 376.52C115.24 376.52 111.24 376.89 110.41 377.93C108.07 380.93 109.53 394.27 111.09 394.74C111.66 394.91 112.26 394.13 112.51 393.59C113.3 391.87 114.69 387.38 115.37 385.96C116.15 384.29 118.37 383.48 119.29 383.19C119.435 383.157 119.562 383.07 119.647 382.949C119.732 382.827 119.769 382.677 119.75 382.53Z" fill="#C53F3F"/>
<path d="M116.24 384C116.262 383.985 116.288 383.976 116.315 383.976C116.342 383.976 116.368 383.985 116.39 384C116.48 384 118.1 384.7 118.39 385.59C118.425 385.702 118.438 385.819 118.428 385.936C118.417 386.053 118.384 386.166 118.33 386.27C118.298 386.381 118.229 386.477 118.134 386.543C118.039 386.608 117.925 386.639 117.81 386.63C117.12 386.55 116.29 384.91 116.2 384.17V384C116.213 383.997 116.227 383.997 116.24 384ZM118.08 386.05C118.12 385.926 118.12 385.794 118.08 385.67C117.89 385.1 116.99 384.6 116.53 384.37C116.75 385.14 117.42 386.24 117.83 386.28C117.83 386.28 117.95 386.28 118.04 386.11V386.05H118.08Z" fill="#263238"/>
<path opacity="0.2" d="M131.62 372.09L121.94 375.54L122.98 381.33L133.98 378.98L131.62 372.09Z" fill="black"/>
<path d="M124.7 382.2L127.48 382.4L125.62 372.82L122.46 374.56L124.7 382.2Z" fill="#C53F3F"/>
<path opacity="0.6" d="M124.7 382.2L127.48 382.4L125.62 372.82L122.46 374.56L124.7 382.2Z" fill="white"/>
<path opacity="0.2" d="M84.31 345L98.81 361.08C98.81 361.08 114.81 360.72 134.31 370.24C134.31 370.24 155.2 361.61 157.12 354.44C159.64 345.05 109.12 352.39 109.12 352.39L84.31 345Z" fill="black"/>
<path d="M104.45 351.43L74.88 348C75.4463 344.946 75.7806 341.854 75.88 338.75C75.9984 334.327 75.8247 329.9 75.36 325.5C74.95 321.29 74.36 316.45 73.36 310.77C73.1599 309.754 73.1897 308.707 73.447 307.704C73.7043 306.701 74.1828 305.769 74.8472 304.975C75.5117 304.181 76.3453 303.546 77.2871 303.116C78.2289 302.686 79.2549 302.472 80.29 302.49C81.48 302.49 82.73 302.55 84.01 302.63C88.5382 302.833 93.0463 303.357 97.5 304.2C98.94 304.49 100.43 304.85 101.86 305.2C106.99 306.53 110.17 312.99 109.73 318.2C109.557 322.249 109.109 326.282 108.39 330.27C107.48 336.15 106.41 341.89 104.45 351.43Z" fill="#C53F3F"/>
<path opacity="0.7" d="M104.45 351.43L74.88 348C75.4463 344.946 75.7806 341.854 75.88 338.75C75.9984 334.327 75.8247 329.9 75.36 325.5C74.95 321.29 74.36 316.45 73.36 310.77C73.1599 309.754 73.1897 308.707 73.447 307.704C73.7043 306.701 74.1828 305.769 74.8472 304.975C75.5117 304.181 76.3453 303.546 77.2871 303.116C78.2289 302.686 79.2549 302.472 80.29 302.49C81.48 302.49 82.73 302.55 84.01 302.63C88.5382 302.833 93.0463 303.357 97.5 304.2C98.94 304.49 100.43 304.85 101.86 305.2C106.99 306.53 110.17 312.99 109.73 318.2C109.557 322.249 109.109 326.282 108.39 330.27C107.48 336.15 106.41 341.89 104.45 351.43Z" fill="white"/>
<path opacity="0.2" d="M75.9 338.76C76.0185 334.337 75.8448 329.91 75.38 325.51C79.08 321.14 82.58 317.51 82.58 317.51C82.58 317.51 88.38 332.44 75.9 338.76Z" fill="black"/>
<path d="M80.57 315.89C80.91 322.22 80.85 332.07 82 338.12L81.7 337.38C81.5 337.09 81.62 337.38 81.83 337.54C82.1005 337.808 82.3878 338.058 82.69 338.29C86.69 341.29 91.49 343.6 96 345.99L101.69 348.92C102.183 349.167 102.568 349.587 102.772 350.1C102.976 350.613 102.984 351.183 102.795 351.701C102.607 352.22 102.234 352.651 101.748 352.912C101.262 353.174 100.697 353.248 100.16 353.12C97.99 352.6 95.91 351.98 93.8 351.34C87.8 349.34 81.64 347.42 76.48 343.51C75.4722 342.727 74.6891 341.693 74.21 340.51C71.9 332.31 71.72 324.39 71.55 316.03C71.76 310.2 80.2 310.09 80.55 315.92L80.57 315.89Z" fill="#E9B376"/>
<path d="M109.67 348.56L107.87 347.25C107.537 347.008 107.15 346.851 106.743 346.79C106.335 346.729 105.92 346.767 105.53 346.9L101.83 348.14C101.101 348.387 100.441 348.804 99.9051 349.357C99.3694 349.91 98.9734 350.583 98.75 351.32L98.47 352.25C101.31 354.61 106.12 355.08 106.12 355.08L107.47 355.36C107.747 355.427 108.033 355.438 108.314 355.393C108.595 355.348 108.864 355.248 109.106 355.098C109.348 354.948 109.558 354.752 109.723 354.521C109.889 354.289 110.006 354.027 110.07 353.75L110.67 351.07C110.766 350.6 110.723 350.111 110.545 349.665C110.368 349.219 110.063 348.835 109.67 348.56Z" fill="#EBB376"/>
<path d="M77.87 302.9C72.09 304.97 70.43 310.01 70.31 320.52C73.31 323.25 82.42 323.4 82.42 323.4C82.42 323.4 84 307.46 77.87 302.9Z" fill="#C53F3F"/>
<path d="M147.89 354.35V356.73C147.89 357.34 147.17 357.59 146.56 357.59H99C98.38 357.59 97.65 357.34 97.65 356.73V354.35H147.89Z" fill="#263238"/>
<path opacity="0.4" d="M147.89 354.35V356.73C147.89 357.34 147.17 357.59 146.56 357.59H99C98.38 357.59 97.65 357.34 97.65 356.73V354.35H147.89Z" fill="white"/>
<path opacity="0.2" d="M147.89 354.35V356.73C147.89 357.34 147.17 357.59 146.56 357.59H115.16C114.55 357.59 113.82 357.34 113.82 356.73V354.35H147.89Z" fill="black"/>
<path d="M155.86 329.61L150.19 355.32C150.085 355.731 149.848 356.096 149.516 356.36C149.184 356.624 148.774 356.771 148.35 356.78H117.35C117.157 356.775 116.968 356.725 116.798 356.634C116.627 356.544 116.48 356.415 116.368 356.258C116.255 356.101 116.181 355.92 116.15 355.73C116.119 355.539 116.133 355.344 116.19 355.16L121.85 329.65C121.966 329.261 122.212 328.923 122.547 328.694C122.882 328.464 123.285 328.357 123.69 328.39H154.69C155.52 328.39 156 328.77 155.86 329.61Z" fill="#263238"/>
<path opacity="0.4" d="M155.86 329.61L150.19 355.32C150.085 355.731 149.848 356.096 149.516 356.36C149.184 356.624 148.774 356.771 148.35 356.78H118.43C118.237 356.774 118.048 356.724 117.877 356.634C117.706 356.543 117.559 356.415 117.446 356.258C117.333 356.102 117.257 355.921 117.225 355.731C117.193 355.54 117.205 355.345 117.26 355.16L122.93 329.65C123.046 329.261 123.292 328.923 123.627 328.694C123.962 328.464 124.365 328.357 124.77 328.39H154.69C155.52 328.39 156 328.77 155.86 329.61Z" fill="white"/>
<path opacity="0.2" d="M140.59 342.67C140.491 343.713 140.026 344.686 139.277 345.419C138.529 346.151 137.545 346.594 136.5 346.67C134.77 346.67 133.74 344.88 134.24 342.67C134.74 340.46 136.45 338.75 138.14 338.67C137.65 340.87 138.71 342.67 140.43 342.67H140.59Z" fill="black"/>
<path d="M145.5 315.28L152.16 315.45L149.16 308.71C149.16 308.71 143.22 308.92 143.45 311.98L145.5 315.28Z" fill="#EBB376"/>
<path d="M157.87 312.17L153.31 307.25L149.14 308.71L152.16 315.45L157.87 312.17Z" fill="#EBB376"/>
<path d="M82.55 302.56C81.87 302.51 83.95 310.86 94.05 312.92C104.15 314.98 103.37 305.69 102.58 303.36C102.58 303.36 89.3 303 82.55 302.56Z" fill="#EBB376"/>
<path d="M85.32 269.91C85.32 269.91 91.11 263.49 101.7 266.8C112.29 270.11 111.84 289.01 106.46 295.87C98.0343 295.574 89.6056 296.361 81.38 298.21C81.38 298.21 76.28 284.5 78.81 276.44C81.34 268.38 85.32 269.91 85.32 269.91Z" fill="#263238"/>
<path d="M87.45 288.76C88.12 293.22 88.64 301.3 85.45 303.86C85.45 303.86 89.61 303.72 97.68 310.1C100.61 306.78 98.88 305.41 98.88 305.41C94.11 303.7 94.38 300.1 95.35 296.81L87.45 288.76Z" fill="#EBB376"/>
<path opacity="0.2" d="M90.69 292.05L95.4 296.81C95.1624 297.581 94.9917 298.37 94.89 299.17C93.06 298.69 90.61 296.36 90.5 294.39C90.4223 293.605 90.4867 292.812 90.69 292.05Z" fill="black"/>
<path d="M84.76 279.66C85.26 286.79 85.33 289.81 88.92 293.66C94.33 299.38 102.92 297.66 104.47 290.66C105.92 284.34 104.85 273.74 97.93 270.61C96.4703 269.887 94.8442 269.567 93.2196 269.683C91.595 269.799 90.0308 270.347 88.6884 271.269C87.346 272.191 86.2742 273.455 85.5836 274.931C84.8931 276.406 84.6087 278.038 84.76 279.66Z" fill="#EBB376"/>
<path d="M93.54 281.85C93.54 282.46 93.87 282.95 94.26 282.97C94.65 282.99 94.93 282.51 94.92 281.91C94.91 281.31 94.58 280.81 94.2 280.8C93.82 280.79 93.52 281.25 93.54 281.85Z" fill="#263238"/>
<path d="M101 281.93C101 282.53 101.34 283.03 101.72 283.05C102.1 283.07 102.39 282.59 102.38 281.99C102.37 281.39 102.04 280.89 101.66 280.88C101.28 280.87 101 281.33 101 281.93Z" fill="#263238"/>
<path d="M101.46 280.9L102.85 280.54C102.85 280.54 102.16 281.64 101.46 280.9Z" fill="#263238"/>
<path d="M98.74 283.16C99.2992 284.553 100.032 285.87 100.92 287.08C100.62 287.284 100.279 287.418 99.9204 287.471C99.562 287.525 99.1961 287.497 98.85 287.39L98.74 283.16Z" fill="#D58745"/>
<path d="M92.34 278.05C92.385 278.057 92.4311 278.054 92.4746 278.04C92.518 278.026 92.5576 278.002 92.59 277.97C92.9021 277.681 93.2816 277.475 93.6938 277.37C94.1059 277.265 94.5378 277.265 94.95 277.37C94.992 277.384 95.0364 277.388 95.0803 277.384C95.1242 277.38 95.1668 277.366 95.2053 277.345C95.2438 277.323 95.2775 277.294 95.3041 277.259C95.3307 277.223 95.3497 277.183 95.36 277.14C95.3849 277.047 95.3727 276.948 95.3261 276.864C95.2794 276.78 95.2019 276.718 95.11 276.69C94.5881 276.55 94.0393 276.545 93.5148 276.674C92.9902 276.803 92.5069 277.063 92.11 277.43C92.0459 277.495 92.0099 277.583 92.0099 277.675C92.0099 277.767 92.0459 277.855 92.11 277.92C92.1674 277.991 92.2496 278.037 92.34 278.05Z" fill="#263238"/>
<path d="M103.9 278.11C103.98 278.141 104.07 278.141 104.15 278.11C104.189 278.086 104.222 278.054 104.248 278.016C104.275 277.979 104.293 277.936 104.302 277.891C104.312 277.846 104.312 277.8 104.303 277.755C104.294 277.71 104.276 277.668 104.25 277.63C103.975 277.137 103.591 276.713 103.126 276.392C102.661 276.072 102.129 275.862 101.57 275.78C101.525 275.777 101.481 275.784 101.439 275.799C101.397 275.815 101.359 275.839 101.327 275.87C101.295 275.901 101.27 275.938 101.253 275.98C101.236 276.021 101.229 276.065 101.23 276.11C101.232 276.204 101.267 276.293 101.329 276.363C101.392 276.433 101.477 276.478 101.57 276.49C102.012 276.557 102.432 276.726 102.798 276.983C103.164 277.239 103.466 277.577 103.68 277.97C103.706 278.007 103.738 278.038 103.776 278.062C103.814 278.086 103.856 278.102 103.9 278.11Z" fill="#263238"/>
<path d="M94 280.82L95.39 280.47C95.39 280.47 94.73 281.56 94 280.82Z" fill="#263238"/>
<path d="M86.24 283.94C86.24 283.94 91.74 279.62 90.49 272.86C90.49 272.86 100.33 268.97 104.21 278.86C104.21 278.86 105.03 270.38 95.78 268.72C86.53 267.06 75.58 279.6 86.06 289.11L86.24 283.94Z" fill="#263238"/>
<path d="M82.49 285.42C82.8468 286.082 83.3308 286.666 83.9144 287.14C84.4979 287.613 85.1693 287.967 85.89 288.18C87.76 288.69 88.6 286.85 88 284.95C87.45 283.24 85.82 280.95 84 281.24C82.18 281.53 81.56 283.73 82.49 285.42Z" fill="#EBB376"/>
<path d="M105.29 283.06C105.245 283.06 105.201 283.045 105.165 283.018C105.129 282.991 105.103 282.953 105.09 282.91C101.56 270.48 89.91 273.04 89.79 273.06C89.7644 273.066 89.7379 273.067 89.712 273.062C89.686 273.058 89.6612 273.049 89.6389 273.035C89.6166 273.021 89.5973 273.003 89.5821 272.981C89.5668 272.96 89.5559 272.936 89.55 272.91C89.5441 272.884 89.5433 272.858 89.5476 272.832C89.552 272.806 89.5614 272.781 89.5753 272.759C89.5892 272.737 89.6074 272.717 89.6288 272.702C89.6502 272.687 89.6744 272.676 89.7 272.67C89.82 272.67 101.85 270 105.48 282.8C105.488 282.826 105.49 282.852 105.487 282.879C105.484 282.906 105.476 282.931 105.463 282.955C105.45 282.978 105.432 282.998 105.411 283.015C105.39 283.031 105.366 283.043 105.34 283.05L105.29 283.06Z" fill="#263238"/>
<path d="M99.2 289.46C98.851 290.277 98.5635 291.12 98.34 291.98H97.87C95.76 291.75 94.87 290.98 94.49 290.13C94.3197 289.726 94.2477 289.287 94.28 288.85C94.2954 288.602 94.3424 288.356 94.42 288.12C95.6642 288.84 97.049 289.284 98.48 289.42C98.92 289.44 99.2 289.46 99.2 289.46Z" fill="#263238"/>
<path d="M98.48 289.38L98.21 290.11C96.21 289.9 94.84 289.48 94.28 288.81C94.2954 288.562 94.3424 288.316 94.42 288.08C95.6642 288.8 97.049 289.244 98.48 289.38Z" fill="white"/>
<path d="M97.87 291.94C95.76 291.71 94.87 290.94 94.49 290.09C95.2915 290.194 96.0694 290.434 96.79 290.8C97.2593 291.059 97.6366 291.457 97.87 291.94Z" fill="#DE5753"/>
<path d="M97.53 322.78C97.4982 322.782 97.4664 322.777 97.4369 322.765C97.4075 322.752 97.3812 322.734 97.36 322.71C92.0465 317.013 88.0399 310.225 85.62 302.82C85.6047 302.759 85.614 302.694 85.6457 302.64C85.6775 302.586 85.7293 302.546 85.79 302.53C85.8196 302.523 85.8503 302.521 85.8804 302.526C85.9106 302.53 85.9395 302.541 85.9656 302.556C85.9916 302.572 86.0143 302.593 86.0322 302.618C86.0501 302.642 86.063 302.67 86.07 302.7C88.4254 309.902 92.2993 316.514 97.43 322.09C98.03 320.09 100.52 310.59 96.77 303.31C96.7517 303.256 96.7533 303.197 96.7746 303.144C96.7958 303.091 96.8354 303.047 96.886 303.021C96.9366 302.994 96.9951 302.986 97.0508 302.999C97.1065 303.012 97.1559 303.044 97.19 303.09C101.48 311.42 97.79 322.51 97.75 322.62C97.7368 322.658 97.7144 322.693 97.6848 322.721C97.6552 322.749 97.6192 322.769 97.58 322.78H97.53Z" fill="#263238"/>
<path d="M97.84 322.36L98.6 323.36C98.6682 323.445 98.7053 323.551 98.7053 323.66C98.7053 323.769 98.6682 323.875 98.6 323.96L97.83 324.96C97.784 325.015 97.7266 325.059 97.6618 325.089C97.597 325.119 97.5265 325.135 97.455 325.135C97.3835 325.135 97.3129 325.119 97.2482 325.089C97.1834 325.059 97.126 325.015 97.08 324.96L96.36 324.14C96.2967 324.057 96.2625 323.955 96.2625 323.85C96.2625 323.745 96.2967 323.643 96.36 323.56L97 322.4C97.0419 322.328 97.1013 322.267 97.1728 322.223C97.2442 322.18 97.3255 322.155 97.4091 322.151C97.4927 322.147 97.5759 322.164 97.6512 322.2C97.7265 322.237 97.7914 322.292 97.84 322.36Z" fill="white"/>
<path opacity="0.7" d="M77.87 302.9C72.09 304.97 70.43 310.01 70.31 320.52C73.31 323.25 82.42 323.4 82.42 323.4C82.42 323.4 84 307.46 77.87 302.9Z" fill="white"/>
<path d="M138.34 383.11L148.48 384.78L153.35 385.58L154.77 380.55L150.37 379.21L139.61 375.94L138.34 383.11Z" fill="#EBB376"/>
<path d="M153.78 379.73L151.59 385.37C151.561 385.445 151.548 385.526 151.55 385.607C151.553 385.687 151.571 385.767 151.605 385.84C151.638 385.914 151.686 385.98 151.745 386.035C151.805 386.09 151.874 386.132 151.95 386.16L154.78 387.16C154.78 387.16 158.49 388.78 159.69 388.26C163.2 386.75 168.37 374.38 167.23 373.26C166.81 372.83 165.91 373.26 165.43 373.58C163.91 374.7 160.52 377.95 159.24 378.87C157.74 379.95 155.45 379.61 154.46 379.4C154.326 379.365 154.184 379.378 154.059 379.439C153.934 379.5 153.835 379.603 153.78 379.73Z" fill="#C53F3F"/>
<path opacity="0.2" d="M138.34 383.11L148.48 384.78L150.37 379.21L139.61 375.94L138.34 383.11Z" fill="black"/>
<path d="M148.62 378.16C148.62 378.16 107.28 354.92 93 355.58C78.72 356.24 76.68 368.82 82.56 376.69C88.44 384.56 99.32 386.48 99.32 386.48C99.32 386.48 91.93 376 93 373.08C94.07 370.16 98.25 374.24 98.25 374.24C98.25 374.24 124.25 382.64 147.02 384.57L148.62 378.16Z" fill="#263238"/>
<path d="M149.29 377.52L146.95 375.95L143.94 385.18H147.55L149.29 377.52Z" fill="#C53F3F"/>
<path opacity="0.6" d="M149.29 377.52L146.95 375.95L143.94 385.18H147.55L149.29 377.52Z" fill="white"/>
</svg>
